<!DOCTYPE svg PUBLIC "-//W3C//DTD SVG 1.1//EN" "http://www.w3.org/Graphics/SVG/1.1/DTD/svg11.dtd">
<!-- Uploaded to: SVG Repo, www.svgrepo.com, Transformed by: SVG Repo Mixer Tools -->
<svg width="800px" height="800px" viewBox="-2 -2 24.00 24.00" xmlns="http://www.w3.org/2000/svg" fill="#000000" transform="rotate(0)" stroke="#000000">
<g id="SVGRepo_bgCarrier" stroke-width="0"/>
<g id="SVGRepo_tracerCarrier" stroke-linecap="round" stroke-linejoin="round" stroke="#CCCCCC" stroke-width="0.32"/>
<g id="SVGRepo_iconCarrier"> <g id="direction-arrow-2" transform="translate(-2.902 -2)"> <path id="secondary" fill="#fc5a3b" d="M4.25,6.33l.9-1A1,1,0,0,1,5.89,5H12V9H5.89a1,1,0,0,1-.74-.33l-.9-1a1,1,0,0,1,0-1.34Zm15.5,5.34-.9,1a1,1,0,0,1-.74.33H12V9h6.11a1,1,0,0,1,.74.33l.9,1A1,1,0,0,1,19.75,11.67Z"/> <path id="primary" d="M4.25,6.33l.9-1A1,1,0,0,1,5.89,5H12V9H5.89a1,1,0,0,1-.74-.33l-.9-1a1,1,0,0,1,0-1.34Zm15.5,5.34-.9,1a1,1,0,0,1-.74.33H12V9h6.11a1,1,0,0,1,.74.33l.9,1A1,1,0,0,1,19.75,11.67ZM12,21V3M9,21h6" fill="none" stroke="#000000" stroke-linecap="round" stroke-linejoin="round" stroke-width="2"/> </g> </g>
</svg>