<!DOCTYPE svg PUBLIC "-//W3C//DTD SVG 1.1//EN" "http://www.w3.org/Graphics/SVG/1.1/DTD/svg11.dtd">
<!-- Uploaded to: SVG Repo, www.svgrepo.com, Transformed by: SVG Repo Mixer Tools -->
<svg width="230px" height="230px" viewBox="-7.2 -7.2 38.40 38.40" fill="none" xmlns="http://www.w3.org/2000/svg" stroke="#f89224">
<g id="SVGRepo_bgCarrier" stroke-width="0" transform="translate(0.9599999999999991,0.9599999999999991), scale(0.92)">
<rect x="-7.2" y="-7.2" width="38.40" height="38.40" rx="19.2" fill="#fff" strokewidth="0"/>
</g>
<g id="SVGRepo_tracerCarrier" stroke-linecap="round" stroke-linejoin="round"/>
<g id="SVGRepo_iconCarrier"> <path d="M21 12L13 12" stroke="#f89224" stroke-width="1.2" stroke-linecap="round" stroke-linejoin="round"/> <path d="M18 15L20.913 12.087V12.087C20.961 12.039 20.961 11.961 20.913 11.913V11.913L18 9" stroke="#f89224" stroke-width="1.2" stroke-linecap="round" stroke-linejoin="round"/> <path d="M16 5V4.5V4.5C16 3.67157 15.3284 3 14.5 3H5C3.89543 3 3 3.89543 3 5V19C3 20.1046 3.89543 21 5 21H14.5C15.3284 21 16 20.3284 16 19.5V19.5V19" stroke="#f89224" stroke-width="1.2" stroke-linecap="round" stroke-linejoin="round"/> </g>
</svg>