<svg version="1.1" id="Layer_1" xmlns="http://www.w3.org/2000/svg" xmlns:xlink="http://www.w3.org/1999/xlink" x="0px" y="0px"
	 width="100%" viewBox="0 0 1000 1000" enable-background="new 0 0 1000 1000" xml:space="preserve">
<path fill="#FFFFFF" opacity="1.000000" stroke="none" 
	d="
M437.000000,1001.000000 
	C291.333344,1001.000000 146.166672,1001.000000 1.000000,1001.000000 
	C1.000000,667.666687 1.000000,334.333344 1.000000,1.000000 
	C334.333344,1.000000 667.666687,1.000000 1001.000000,1.000000 
	C1001.000000,334.333344 1001.000000,667.666687 1001.000000,1001.000000 
	C813.166687,1001.000000 625.333313,1001.000000 437.000000,1001.000000 
M636.123291,393.492920 
	C636.123291,378.660767 635.986206,363.826447 636.219849,348.997986 
	C636.278076,345.302399 634.995544,343.450500 631.868286,341.660400 
	C589.690308,317.516937 547.584351,293.247528 505.511688,268.920868 
	C503.086792,267.518768 501.332275,267.357788 498.808624,268.827240 
	C456.522125,293.448700 414.183228,317.980438 371.794922,342.426208 
	C369.128082,343.964172 368.160522,345.658752 368.182709,348.710083 
	C368.317444,367.207397 368.242432,385.706207 368.266876,404.204468 
	C368.268494,405.433685 368.512665,406.662537 368.698181,408.398773 
	C370.787781,407.257935 372.380646,406.430481 373.933746,405.534180 
	C415.017303,381.824036 456.131287,358.166107 497.120239,334.293488 
	C500.970612,332.050995 503.657532,332.172089 507.441833,334.373627 
	C548.585754,358.309784 589.845825,382.046143 631.081360,405.824615 
	C632.539978,406.665741 634.072327,407.379120 636.123352,408.437408 
	C636.123352,403.137329 636.123352,398.812653 636.123291,393.492920 
M612.572693,484.987946 
	C614.220398,484.882294 616.138794,485.286621 617.468201,484.581207 
	C622.757202,481.774811 628.001343,478.827606 632.953979,475.477112 
	C634.507446,474.426208 635.931763,471.969116 635.983765,470.115509 
	C636.273254,459.790619 635.955444,449.449249 636.213440,439.122681 
	C636.304138,435.492004 635.170532,433.543121 631.980347,431.712189 
	C589.971497,407.602631 548.035950,383.364899 506.158936,359.026917 
	C503.198456,357.306305 501.098267,357.221436 498.108337,358.965363 
	C460.582764,380.852966 422.966217,402.584473 385.388702,424.383057 
	C379.781158,427.635956 372.054596,429.790955 369.296600,434.696289 
	C366.428284,439.797760 368.283722,447.618652 368.282288,454.250458 
	C368.280884,460.715576 366.487976,468.332336 369.279907,473.315369 
	C371.961975,478.102356 379.672241,479.929565 384.868896,483.500031 
	C388.373779,485.908081 391.004181,485.715942 394.669189,483.571503 
	C429.003998,463.481812 463.483765,443.639984 497.880402,423.655518 
	C500.492737,422.137726 502.535065,421.407959 505.568787,423.172119 
	C540.963867,443.755188 576.456726,464.169983 612.572693,484.987946 
M234.500000,782.911621 
	C206.753876,782.911621 179.007767,782.911621 151.334686,782.911621 
	C151.334686,789.389343 151.334686,795.137207 151.334686,800.793213 
	C384.685944,800.793213 617.702759,800.793213 850.664062,800.793213 
	C850.664062,794.671814 850.664062,788.928650 850.664062,782.911621 
	C645.385620,782.911621 440.442810,782.911621 234.500000,782.911621 
M417.089386,497.544739 
	C415.726166,498.388702 414.362946,499.232697 412.605957,500.320465 
	C430.769470,510.735901 448.326935,520.877258 466.009796,530.794800 
	C467.326569,531.533325 469.858154,531.242676 471.289124,530.455872 
	C480.465179,525.410339 489.552948,520.194763 498.528351,514.799866 
	C501.117615,513.243469 503.027649,513.078979 505.707794,514.687988 
	C514.684631,520.077148 523.908936,525.053589 532.901917,530.416992 
	C535.393188,531.902771 537.167297,531.801941 539.632996,530.359009 
	C553.119446,522.466370 566.729126,514.784363 580.289429,507.017700 
	C583.968811,504.910309 587.623657,502.760254 591.758057,500.357666 
	C590.418335,499.429016 589.661316,498.821289 588.830688,498.340607 
	C560.917175,482.186859 532.965515,466.098145 505.125183,449.819244 
	C502.362244,448.203674 500.603485,449.070343 498.376282,450.364929 
	C471.498657,465.988068 444.595917,481.568024 417.089386,497.544739 
M318.995667,637.500000 
	C318.995667,644.930725 318.995667,652.361450 318.995667,659.737671 
	C323.724426,659.737671 327.764008,659.737671 332.264832,659.737671 
	C332.264832,649.814880 332.264832,640.314209 332.264832,629.670410 
	C337.816895,638.215393 342.702759,645.726562 347.579712,653.243530 
	C352.684875,661.112183 354.246979,661.713684 363.807404,659.445862 
	C363.807404,641.737854 363.807404,624.029846 363.807404,606.358337 
	C359.514526,606.358337 355.621277,606.358337 351.176025,606.358337 
	C351.176025,616.224243 351.176025,625.741211 351.176025,635.258240 
	C345.385162,628.014221 340.511292,620.553223 335.645386,613.087097 
	C330.345917,604.955750 329.381348,604.568176 318.995728,606.741760 
	C318.995728,616.590820 318.995728,626.545410 318.995667,637.500000 
M418.703857,647.546631 
	C419.422577,643.723206 416.872864,639.166992 421.566437,635.702637 
	C425.816925,642.869202 429.917358,649.857300 434.113464,656.787415 
	C434.850372,658.004517 435.925385,659.842285 436.951660,659.916931 
	C441.605774,660.255554 446.298370,660.065186 452.084106,660.065186 
	C444.877899,648.207886 438.352509,637.470764 431.701843,626.527527 
	C437.753815,619.977905 443.684753,613.559265 449.615723,607.140625 
	C446.287048,605.991394 443.933228,606.249390 441.656982,605.938904 
	C436.582031,605.246643 432.853973,606.937622 429.565948,610.918945 
	C426.573792,614.542053 422.835052,617.548645 418.523193,621.694580 
	C418.523193,615.892944 418.523193,611.067810 418.523193,606.304321 
	C413.649414,606.304321 409.563049,606.304321 405.305206,606.304321 
	C405.305206,624.316223 405.305206,642.013977 405.305206,659.784668 
	C409.829376,659.784668 414.035034,659.784668 418.703613,659.784668 
	C418.703613,655.777710 418.703613,652.148376 418.703857,647.546631 
M259.554871,606.369934 
	C257.240845,606.244141 254.894943,606.316650 252.619522,605.950806 
	C248.074158,605.219910 245.917648,607.042236 244.318680,611.408813 
	C238.946457,626.079651 233.068024,640.565002 227.404724,655.129639 
	C226.842972,656.574280 226.427261,658.075745 225.742630,660.164490 
	C230.046005,660.164490 233.543152,660.388184 236.984879,660.049255 
	C238.276276,659.922119 240.316330,658.655640 240.514587,657.621094 
	C241.610123,651.903809 245.430267,651.418945 250.108566,651.819519 
	C252.754654,652.046204 255.460022,652.085266 258.095490,651.803955 
	C261.431488,651.447876 263.343628,652.481201 264.264008,655.872437 
	C264.688660,657.437012 266.037689,659.793213 267.189301,659.930481 
	C271.328461,660.423889 275.562164,660.124146 279.959137,660.124146 
	C279.735046,658.724976 279.740021,658.214600 279.569763,657.771423 
	C273.070953,640.858948 266.556091,623.952637 259.554871,606.369934 
M729.716370,659.908508 
	C731.702332,652.013977 737.291687,650.683533 744.306030,651.834351 
	C745.440674,652.020508 746.658386,652.019470 747.792480,651.831726 
	C751.712219,651.182983 753.981201,652.605103 755.081482,656.558167 
	C755.470398,657.955505 757.147278,659.841492 758.413269,659.989441 
	C762.270508,660.440369 766.213989,660.153015 770.775452,660.153015 
	C769.851990,657.464294 769.270508,655.589966 768.570129,653.761169 
	C763.521118,640.576111 758.513794,627.374451 753.361206,614.229919 
	C749.382751,604.080688 752.162292,606.431946 741.686584,605.912659 
	C738.039429,605.731934 736.475098,607.080627 735.233521,610.388916 
	C729.630920,625.317627 723.744507,640.139709 717.980591,655.007996 
	C717.409058,656.482239 716.975464,658.009949 716.275146,660.125000 
	C720.959717,660.125000 724.917908,660.125000 729.716370,659.908508 
M502.103424,626.544861 
	C497.884216,637.480774 493.664978,648.416626 489.133484,660.161926 
	C493.752258,660.161926 497.386475,660.353088 500.978821,660.049011 
	C502.101746,659.953979 503.853210,658.670166 504.050293,657.678772 
	C505.154327,652.123779 508.794189,651.339661 513.559448,651.809998 
	C516.360413,652.086426 519.232910,652.080872 522.033508,651.802734 
	C525.256775,651.482605 526.829773,652.784180 527.862549,655.756226 
	C528.433350,657.398987 529.859375,659.763855 531.158020,659.944031 
	C535.124451,660.494629 539.216064,660.143921 543.797974,660.143921 
	C542.983215,657.667297 542.535217,656.091980 541.952759,654.568054 
	C536.440491,640.145508 530.726807,625.796143 525.489807,611.274658 
	C523.995483,607.131104 522.042236,605.193665 517.652161,605.962830 
	C516.522278,606.160767 515.311829,606.117798 514.166809,605.968079 
	C511.247101,605.586426 509.688049,606.656799 508.701202,609.582336 
	C506.846466,615.080933 504.517487,620.419556 502.103424,626.544861 
M641.651123,660.169006 
	C644.780945,660.169006 647.910767,660.169006 651.745056,660.169006 
	C651.745056,654.313354 651.745056,648.936707 651.745056,643.409729 
	C656.406311,643.181213 660.397766,643.203430 664.334534,642.750549 
	C674.856750,641.540100 681.185791,635.355896 681.712158,626.064270 
	C682.269714,616.222229 676.390991,607.914001 666.176880,606.697388 
	C657.062622,605.611694 647.716980,606.469177 638.042664,606.469177 
	C638.042664,623.631409 638.002930,640.585449 638.155762,657.537720 
	C638.163757,658.420227 639.813049,659.287842 641.651123,660.169006 
M563.832764,737.510498 
	C563.832764,742.981445 563.832764,748.452393 563.832764,754.262695 
	C567.033691,754.262695 569.767944,754.262695 572.639221,754.262695 
	C572.639221,740.770569 572.639221,727.560852 572.639221,714.396301 
	C562.531738,713.247375 562.547180,713.253540 558.989990,722.162720 
	C556.947021,727.279602 554.844238,732.372620 552.460876,738.232361 
	C549.416565,730.745300 546.825684,724.083862 543.955688,717.544800 
	C543.337708,716.136902 541.861389,714.427429 540.519836,714.158875 
	C537.860352,713.626404 535.019287,714.001526 532.102905,714.001526 
	C532.102905,727.784729 532.102905,740.874695 532.102905,754.272217 
	C535.107727,754.272217 537.841919,754.272217 541.145996,754.272217 
	C541.145996,747.824768 541.145996,741.702820 541.145996,735.580933 
	C543.985229,740.386841 545.707947,745.406311 548.040466,750.124329 
	C548.752441,751.564392 551.115784,752.887207 552.770020,752.946472 
	C554.155151,752.996094 556.231018,751.432922 556.914978,750.047668 
	C558.895325,746.036804 560.288025,741.738770 562.033936,737.605164 
	C562.225464,737.151794 563.212158,737.034241 563.832764,737.510498 
M819.371338,659.055481 
	C823.655640,659.554932 827.940002,660.054382 831.825928,660.507385 
	C832.460693,659.321228 832.700928,659.050598 832.746643,658.750366 
	C832.846436,658.095520 832.970032,657.406555 832.870361,656.764648 
	C830.747192,643.092224 835.177917,631.326843 843.265320,620.581604 
	C844.359009,619.128601 845.146179,617.443665 846.062927,615.859070 
	C847.772461,612.904114 849.472900,609.943970 851.540527,606.355225 
	C849.200012,606.190674 847.750183,606.220215 846.351135,605.967834 
	C840.114380,604.842651 836.073975,607.046204 833.513855,613.062500 
	C831.682983,617.365234 828.735046,621.192688 825.938843,625.803894 
	C822.304993,619.812439 819.191772,614.528137 815.899963,609.357544 
	C815.073914,608.060181 813.766052,606.320984 812.521118,606.179443 
	C808.808472,605.757385 805.017151,606.027954 799.956726,606.027954 
	C803.214172,611.549011 805.459473,616.367920 808.608765,620.497375 
	C817.161865,631.712524 821.155396,644.042236 819.371338,659.055481 
M625.867126,742.545593 
	C625.867126,739.528381 625.867126,736.511230 625.867126,733.494019 
	C630.963074,739.614807 635.146362,745.778015 639.042847,752.117493 
	C641.395081,755.944580 644.939270,754.668518 647.967041,754.259827 
	C648.822205,754.144409 649.742615,750.841492 649.782593,748.982239 
	C649.971985,740.166138 649.867188,731.343689 649.867188,722.523499 
	C649.867188,719.782410 649.867188,717.041321 649.867188,714.414429 
	C646.063477,714.414429 643.175476,714.414429 639.876282,714.414429 
	C639.876282,721.710815 639.876282,728.585693 639.876282,736.958496 
	C635.386841,730.066895 631.701233,724.432922 628.040344,718.782898 
	C624.466858,713.267822 622.993713,712.767944 616.299377,714.852356 
	C616.299377,727.939819 616.299377,741.007263 616.299377,754.013916 
	C625.560181,755.648438 625.867065,755.414246 625.867188,747.004456 
	C625.867249,745.839539 625.867126,744.674561 625.867126,742.545593 
M164.681168,639.482666 
	C164.681168,628.412659 164.681168,617.342651 164.681168,606.301758 
	C159.653244,606.301758 155.562271,606.301758 151.254227,606.301758 
	C151.254227,624.345886 151.254227,642.079346 151.254227,659.948608 
	C162.596542,659.948608 173.673416,659.948608 184.927582,659.948608 
	C184.927582,655.843506 184.927582,652.064331 184.927582,647.799683 
	C178.270767,647.799683 171.835297,647.799683 164.680710,647.799683 
	C164.680710,645.041077 164.680710,642.762207 164.681168,639.482666 
M392.326202,752.808655 
	C390.231842,748.531006 388.137451,744.253296 386.001556,739.890869 
	C391.561493,736.058899 393.875244,731.196289 392.231995,724.708252 
	C390.877563,719.360352 387.660126,715.498840 382.261017,714.839539 
	C375.124542,713.968140 367.869293,714.069397 360.129211,713.729004 
	C360.129211,725.322266 360.129150,735.920776 360.129211,746.519287 
	C360.129242,755.168945 360.129669,755.172913 368.970490,754.440552 
	C369.257690,754.416748 369.522888,754.127808 370.376160,753.615601 
	C370.376160,750.083984 370.376160,746.192078 370.376160,742.542847 
	C377.324249,739.968811 377.462463,745.588867 379.099457,748.907288 
	C382.185211,755.162476 385.454132,756.419678 392.326202,752.808655 
M321.209106,715.539612 
	C311.062805,722.323608 307.844452,734.423523 313.577637,744.231506 
	C319.035431,753.568420 331.120026,757.172058 340.962555,752.397888 
	C351.072571,747.493896 355.406342,735.177368 350.683105,724.772217 
	C345.840240,714.103455 333.774384,710.072754 321.209106,715.539612 
M589.911987,728.450867 
	C589.911987,726.713684 589.911987,724.976562 589.911987,722.700195 
	C596.659973,722.700195 602.896667,722.700195 609.381165,722.700195 
	C609.381165,719.555237 609.381165,716.958984 609.381165,714.029175 
	C599.441528,714.029175 589.714233,714.029175 579.713379,714.029175 
	C579.713379,727.487366 579.713379,740.686462 579.713379,753.893799 
	C589.799744,753.893799 599.518494,753.893799 609.169250,753.893799 
	C610.360413,745.117981 610.360413,745.117920 602.055054,745.117554 
	C598.094543,745.117371 594.134033,745.117493 590.084595,745.117493 
	C590.084595,742.708008 590.084595,740.850647 590.084595,738.646912 
	C593.317261,738.646912 596.135803,738.549988 598.944641,738.673950 
	C601.789124,738.799500 602.576477,737.503723 602.732544,734.785828 
	C602.957275,730.872559 602.052917,728.752380 597.589783,729.294250 
	C595.306702,729.571472 592.944153,729.194458 589.911987,728.450867 
M707.369019,754.866150 
	C708.682922,754.697021 710.021301,754.634827 711.306641,754.340820 
	C717.787720,752.858398 721.523132,749.016846 721.990356,743.450623 
	C722.509644,737.264648 719.796997,733.376831 713.042664,730.785217 
	C710.409302,729.774780 707.635864,729.091187 705.093811,727.900818 
	C704.115356,727.442688 702.860107,725.803650 703.052551,725.032593 
	C703.342041,723.873291 704.731750,722.251709 705.764160,722.166504 
	C707.990662,721.982727 710.381714,722.359619 712.529907,723.051697 
	C714.803894,723.784119 716.874268,725.148438 719.443237,726.443237 
	C720.359436,723.290039 721.124756,720.656189 721.931580,717.879272 
	C714.503052,713.677124 707.247681,711.439941 699.258423,714.679565 
	C694.501587,716.608337 691.935974,720.076355 691.785706,725.397339 
	C691.632629,730.817993 694.228638,734.208008 699.001953,736.150391 
	C701.609863,737.211670 704.527527,737.664429 706.916809,739.058105 
	C708.607910,740.044495 709.647400,742.148010 710.977844,743.752808 
	C709.118652,744.487671 707.097595,746.084534 705.435059,745.772278 
	C702.281738,745.180115 699.285156,743.598450 696.322083,742.216370 
	C694.925598,741.564941 693.757385,740.424133 692.426636,739.462341 
	C688.303040,747.814575 688.875854,749.763611 696.824768,752.790283 
	C699.870667,753.950134 703.262512,754.201416 707.369019,754.866150 
M450.907440,747.370117 
	C450.144562,749.483704 449.381683,751.597351 448.326630,754.520447 
	C452.707886,753.835510 457.273193,757.093262 459.448517,752.060425 
	C460.924255,748.645935 462.724304,747.687683 466.098785,747.959229 
	C469.221863,748.210510 472.381042,748.012756 475.370636,748.012756 
	C479.037323,755.325500 481.025787,756.151062 488.793915,753.561584 
	C484.196747,741.506165 479.471558,729.510254 475.097931,717.387451 
	C473.898682,714.063416 471.849518,713.841187 469.020569,713.944641 
	C466.208069,714.047546 463.744598,713.626770 462.417084,717.384888 
	C458.939758,727.228943 454.925842,736.883484 450.907440,747.370117 
M436.828339,714.246643 
	C430.245514,714.246643 423.662659,714.246643 417.107788,714.246643 
	C417.107788,727.848267 417.107788,740.940308 417.107788,753.975586 
	C426.445740,755.753662 426.810516,755.473816 426.862335,746.732483 
	C426.870941,745.279602 426.863556,743.826599 426.863556,742.230530 
	C436.349426,741.163818 447.068695,742.530579 448.900970,729.672241 
	C449.988312,722.041565 445.739227,716.832947 436.828339,714.246643 
M280.300598,753.841614 
	C283.333130,754.148010 286.365692,754.454407 289.980103,754.819580 
	C289.980103,749.452637 289.980103,744.882202 289.980103,739.820984 
	C293.600647,739.820984 297.345795,740.868835 299.629211,739.492188 
	C301.483765,738.374084 301.584442,734.346863 302.740417,730.745361 
	C297.540833,730.745361 293.961121,730.745361 290.222534,730.745361 
	C290.222534,727.993774 290.222534,725.743103 290.222534,722.998291 
	C296.152924,722.998291 301.888733,722.998291 307.828125,722.998291 
	C307.828125,719.800049 307.828125,717.101074 307.828125,714.348572 
	C298.458679,714.348572 289.428497,714.348572 280.036743,714.348572 
	C280.036743,727.458618 280.036743,740.219421 280.300598,753.841614 
M523.585693,713.999023 
	C517.636719,712.783997 513.880432,715.173218 511.608795,720.752686 
	C510.524353,723.416138 508.612213,725.742554 506.986908,728.363647 
	C506.309357,727.621460 506.041901,727.403992 505.869080,727.127441 
	C504.282928,724.588745 502.704590,722.044983 501.140381,719.492737 
	C497.319794,713.258728 495.749725,712.682739 488.023529,714.955627 
	C494.555328,727.369324 505.730774,738.105042 501.220551,754.267273 
	C505.423492,754.267273 508.486969,754.267273 511.485260,754.267273 
	C511.997650,748.027344 511.455292,741.807129 513.245972,736.352783 
	C515.119934,730.644775 519.235718,725.672852 522.371582,720.379089 
	C523.218933,718.948669 524.179504,717.568237 524.847717,716.058472 
	C525.066223,715.564758 524.523621,714.734131 523.585693,713.999023 
M668.874939,754.617981 
	C671.117859,754.486633 673.360779,754.355225 675.992432,754.201111 
	C675.992432,743.575195 675.992432,733.504639 675.992432,722.950806 
	C679.312256,722.950806 682.211975,722.950806 685.215820,722.950806 
	C685.215820,719.732788 685.215820,717.018982 685.215820,713.991699 
	C676.187805,713.991699 667.561096,713.984070 658.934448,714.004517 
	C658.143188,714.006348 657.352295,714.188477 656.338806,714.314514 
	C656.338806,717.264160 656.338806,719.955872 656.338806,723.152588 
	C659.593628,723.152588 662.501587,723.152588 665.719238,723.152588 
	C665.719238,732.452454 665.609253,741.250183 665.823181,750.039978 
	C665.860596,751.577026 667.260071,753.080933 668.874939,754.617981 
z"/>
<path fill="#FC5B3C" opacity="1.000000" stroke="none" 
	d="
M636.123291,393.990417 
	C636.123352,398.812653 636.123352,403.137329 636.123352,408.437408 
	C634.072327,407.379120 632.539978,406.665741 631.081360,405.824615 
	C589.845825,382.046143 548.585754,358.309784 507.441833,334.373627 
	C503.657532,332.172089 500.970612,332.050995 497.120239,334.293488 
	C456.131287,358.166107 415.017303,381.824036 373.933746,405.534180 
	C372.380646,406.430481 370.787781,407.257935 368.698181,408.398773 
	C368.512665,406.662537 368.268494,405.433685 368.266876,404.204468 
	C368.242432,385.706207 368.317444,367.207397 368.182709,348.710083 
	C368.160522,345.658752 369.128082,343.964172 371.794922,342.426208 
	C414.183228,317.980438 456.522125,293.448700 498.808624,268.827240 
	C501.332275,267.357788 503.086792,267.518768 505.511688,268.920868 
	C547.584351,293.247528 589.690308,317.516937 631.868286,341.660400 
	C634.995544,343.450500 636.278076,345.302399 636.219849,348.997986 
	C635.986206,363.826447 636.123291,378.660767 636.123291,393.990417 
z"/>
<path fill="#FC5B3C" opacity="1.000000" stroke="none" 
	d="
M612.248230,484.808624 
	C576.456726,464.169983 540.963867,443.755188 505.568787,423.172119 
	C502.535065,421.407959 500.492737,422.137726 497.880402,423.655518 
	C463.483765,443.639984 429.003998,463.481812 394.669189,483.571503 
	C391.004181,485.715942 388.373779,485.908081 384.868896,483.500031 
	C379.672241,479.929565 371.961975,478.102356 369.279907,473.315369 
	C366.487976,468.332336 368.280884,460.715576 368.282288,454.250458 
	C368.283722,447.618652 366.428284,439.797760 369.296600,434.696289 
	C372.054596,429.790955 379.781158,427.635956 385.388702,424.383057 
	C422.966217,402.584473 460.582764,380.852966 498.108337,358.965363 
	C501.098267,357.221436 503.198456,357.306305 506.158936,359.026917 
	C548.035950,383.364899 589.971497,407.602631 631.980347,431.712189 
	C635.170532,433.543121 636.304138,435.492004 636.213440,439.122681 
	C635.955444,449.449249 636.273254,459.790619 635.983765,470.115509 
	C635.931763,471.969116 634.507446,474.426208 632.953979,475.477112 
	C628.001343,478.827606 622.757202,481.774811 617.468201,484.581207 
	C616.138794,485.286621 614.220398,484.882294 612.248230,484.808624 
z"/>
<path fill="#FC5A3B" opacity="1.000000" stroke="none" 
	d="
M235.000000,782.911621 
	C440.442810,782.911621 645.385620,782.911621 850.664062,782.911621 
	C850.664062,788.928650 850.664062,794.671814 850.664062,800.793213 
	C617.702759,800.793213 384.685944,800.793213 151.334686,800.793213 
	C151.334686,795.137207 151.334686,789.389343 151.334686,782.911621 
	C179.007767,782.911621 206.753876,782.911621 235.000000,782.911621 
z"/>
<path fill="#FC5B3C" opacity="1.000000" stroke="none" 
	d="
M417.394562,497.351990 
	C444.595917,481.568024 471.498657,465.988068 498.376282,450.364929 
	C500.603485,449.070343 502.362244,448.203674 505.125183,449.819244 
	C532.965515,466.098145 560.917175,482.186859 588.830688,498.340607 
	C589.661316,498.821289 590.418335,499.429016 591.758057,500.357666 
	C587.623657,502.760254 583.968811,504.910309 580.289429,507.017700 
	C566.729126,514.784363 553.119446,522.466370 539.632996,530.359009 
	C537.167297,531.801941 535.393188,531.902771 532.901917,530.416992 
	C523.908936,525.053589 514.684631,520.077148 505.707794,514.687988 
	C503.027649,513.078979 501.117615,513.243469 498.528351,514.799866 
	C489.552948,520.194763 480.465179,525.410339 471.289124,530.455872 
	C469.858154,531.242676 467.326569,531.533325 466.009796,530.794800 
	C448.326935,520.877258 430.769470,510.735901 412.605957,500.320465 
	C414.362946,499.232697 415.726166,498.388702 417.394562,497.351990 
z"/>
<path fill="#FC5C3D" opacity="1.000000" stroke="none" 
	d="
M318.995697,637.000000 
	C318.995728,626.545410 318.995728,616.590820 318.995728,606.741760 
	C329.381348,604.568176 330.345917,604.955750 335.645386,613.087097 
	C340.511292,620.553223 345.385162,628.014221 351.176025,635.258240 
	C351.176025,625.741211 351.176025,616.224243 351.176025,606.358337 
	C355.621277,606.358337 359.514526,606.358337 363.807404,606.358337 
	C363.807404,624.029846 363.807404,641.737854 363.804810,659.447327 
	C354.246979,661.713684 352.684875,661.112183 347.579712,653.243530 
	C342.702759,645.726562 337.816895,638.215393 332.264832,629.670410 
	C332.264832,640.314209 332.264832,649.814880 332.264832,659.737671 
	C327.764008,659.737671 323.724426,659.737671 318.995667,659.737671 
	C318.995667,652.361450 318.995667,644.930725 318.995697,637.000000 
z"/>
<path fill="#FC5D3F" opacity="1.000000" stroke="none" 
	d="
M418.703735,648.032837 
	C418.703613,652.148376 418.703613,655.777710 418.703613,659.784668 
	C414.035034,659.784668 409.829376,659.784668 405.305206,659.784668 
	C405.305206,642.013977 405.305206,624.316223 405.305206,606.304321 
	C409.563049,606.304321 413.649414,606.304321 418.523193,606.304321 
	C418.523193,611.067810 418.523193,615.892944 418.523193,621.694580 
	C422.835052,617.548645 426.573792,614.542053 429.565948,610.918945 
	C432.853973,606.937622 436.582031,605.246643 441.656982,605.938904 
	C443.933228,606.249390 446.287048,605.991394 449.615723,607.140625 
	C443.684753,613.559265 437.753815,619.977905 431.701843,626.527527 
	C438.352509,637.470764 444.877899,648.207886 452.084106,660.065186 
	C446.298370,660.065186 441.605774,660.255554 436.951660,659.916931 
	C435.925385,659.842285 434.850372,658.004517 434.113464,656.787415 
	C429.917358,649.857300 425.816925,642.869202 421.566437,635.702637 
	C416.872864,639.166992 419.422577,643.723206 418.703735,648.032837 
z"/>
<path fill="#FC5D3E" opacity="1.000000" stroke="none" 
	d="
M259.799133,606.707703 
	C266.556091,623.952637 273.070953,640.858948 279.569763,657.771423 
	C279.740021,658.214600 279.735046,658.724976 279.959137,660.124146 
	C275.562164,660.124146 271.328461,660.423889 267.189301,659.930481 
	C266.037689,659.793213 264.688660,657.437012 264.264008,655.872437 
	C263.343628,652.481201 261.431488,651.447876 258.095490,651.803955 
	C255.460022,652.085266 252.754654,652.046204 250.108566,651.819519 
	C245.430267,651.418945 241.610123,651.903809 240.514587,657.621094 
	C240.316330,658.655640 238.276276,659.922119 236.984879,660.049255 
	C233.543152,660.388184 230.046005,660.164490 225.742630,660.164490 
	C226.427261,658.075745 226.842972,656.574280 227.404724,655.129639 
	C233.068024,640.565002 238.946457,626.079651 244.318680,611.408813 
	C245.917648,607.042236 248.074158,605.219910 252.619522,605.950806 
	C254.894943,606.316650 257.240845,606.244141 259.799133,606.707703 
M250.777527,628.364197 
	C249.426682,632.343079 248.075851,636.321899 246.635406,640.564697 
	C251.172302,640.564697 254.872345,640.564697 259.022400,640.564697 
	C256.983704,634.599731 255.088699,629.055115 252.825851,622.434265 
	C251.931473,624.944336 251.451767,626.290588 250.777527,628.364197 
z"/>
<path fill="#FC5D3E" opacity="1.000000" stroke="none" 
	d="
M729.296265,660.016724 
	C724.917908,660.125000 720.959717,660.125000 716.275146,660.125000 
	C716.975464,658.009949 717.409058,656.482239 717.980591,655.007996 
	C723.744507,640.139709 729.630920,625.317627 735.233521,610.388916 
	C736.475098,607.080627 738.039429,605.731934 741.686584,605.912659 
	C752.162292,606.431946 749.382751,604.080688 753.361206,614.229919 
	C758.513794,627.374451 763.521118,640.576111 768.570129,653.761169 
	C769.270508,655.589966 769.851990,657.464294 770.775452,660.153015 
	C766.213989,660.153015 762.270508,660.440369 758.413269,659.989441 
	C757.147278,659.841492 755.470398,657.955505 755.081482,656.558167 
	C753.981201,652.605103 751.712219,651.182983 747.792480,651.831726 
	C746.658386,652.019470 745.440674,652.020508 744.306030,651.834351 
	C737.291687,650.683533 731.702332,652.013977 729.296265,660.016724 
M746.309937,631.129822 
	C745.450989,628.570618 744.592102,626.011475 743.299011,622.158813 
	C740.968140,629.114014 739.075256,634.762268 737.107666,640.633667 
	C741.529480,640.633667 745.136963,640.633667 749.349792,640.633667 
	C748.366577,637.451050 747.501404,634.650696 746.309937,631.129822 
z"/>
<path fill="#FC5D3E" opacity="1.000000" stroke="none" 
	d="
M502.244568,626.184753 
	C504.517487,620.419556 506.846466,615.080933 508.701202,609.582336 
	C509.688049,606.656799 511.247101,605.586426 514.166809,605.968079 
	C515.311829,606.117798 516.522278,606.160767 517.652161,605.962830 
	C522.042236,605.193665 523.995483,607.131104 525.489807,611.274658 
	C530.726807,625.796143 536.440491,640.145508 541.952759,654.568054 
	C542.535217,656.091980 542.983215,657.667297 543.797974,660.143921 
	C539.216064,660.143921 535.124451,660.494629 531.158020,659.944031 
	C529.859375,659.763855 528.433350,657.398987 527.862549,655.756226 
	C526.829773,652.784180 525.256775,651.482605 522.033508,651.802734 
	C519.232910,652.080872 516.360413,652.086426 513.559448,651.809998 
	C508.794189,651.339661 505.154327,652.123779 504.050293,657.678772 
	C503.853210,658.670166 502.101746,659.953979 500.978821,660.049011 
	C497.386475,660.353088 493.752258,660.161926 489.133484,660.161926 
	C493.664978,648.416626 497.884216,637.480774 502.244568,626.184753 
M511.441376,640.802673 
	C514.891724,640.802673 518.342102,640.802673 522.645203,640.802673 
	C520.566467,634.607483 518.696533,629.034424 516.826538,623.461365 
	C516.452881,623.469604 516.079163,623.477844 515.705505,623.486084 
	C514.041748,629.159546 512.377930,634.833069 511.441376,640.802673 
z"/>
<path fill="#FC5D3F" opacity="1.000000" stroke="none" 
	d="
M641.174683,660.165710 
	C639.813049,659.287842 638.163757,658.420227 638.155762,657.537720 
	C638.002930,640.585449 638.042664,623.631409 638.042664,606.469177 
	C647.716980,606.469177 657.062622,605.611694 666.176880,606.697388 
	C676.390991,607.914001 682.269714,616.222229 681.712158,626.064270 
	C681.185791,635.355896 674.856750,641.540100 664.334534,642.750549 
	C660.397766,643.203430 656.406311,643.181213 651.745056,643.409729 
	C651.745056,648.936707 651.745056,654.313354 651.745056,660.169006 
	C647.910767,660.169006 644.780945,660.169006 641.174683,660.165710 
M662.651428,618.283447 
	C659.082031,618.283447 655.512573,618.283447 651.900513,618.283447 
	C651.900513,622.622925 651.900513,626.552063 651.900513,631.042419 
	C655.204651,631.042419 658.296509,631.137878 661.379944,631.016724 
	C664.763245,630.883911 667.791443,629.767090 668.418274,626.006714 
	C669.051758,622.206604 667.121582,619.693237 662.651428,618.283447 
z"/>
<path fill="#FC5D3E" opacity="1.000000" stroke="none" 
	d="
M563.831421,737.135742 
	C563.212158,737.034241 562.225464,737.151794 562.033936,737.605164 
	C560.288025,741.738770 558.895325,746.036804 556.914978,750.047668 
	C556.231018,751.432922 554.155151,752.996094 552.770020,752.946472 
	C551.115784,752.887207 548.752441,751.564392 548.040466,750.124329 
	C545.707947,745.406311 543.985229,740.386841 541.145996,735.580933 
	C541.145996,741.702820 541.145996,747.824768 541.145996,754.272217 
	C537.841919,754.272217 535.107727,754.272217 532.102905,754.272217 
	C532.102905,740.874695 532.102905,727.784729 532.102905,714.001526 
	C535.019287,714.001526 537.860352,713.626404 540.519836,714.158875 
	C541.861389,714.427429 543.337708,716.136902 543.955688,717.544800 
	C546.825684,724.083862 549.416565,730.745300 552.460876,738.232361 
	C554.844238,732.372620 556.947021,727.279602 558.989990,722.162720 
	C562.547180,713.253540 562.531738,713.247375 572.639221,714.396301 
	C572.639221,727.560852 572.639221,740.770569 572.639221,754.262695 
	C569.767944,754.262695 567.033691,754.262695 563.832764,754.262695 
	C563.832764,748.452393 563.832764,742.981445 563.831421,737.135742 
z"/>
<path fill="#FC5D3F" opacity="1.000000" stroke="none" 
	d="
M819.297119,658.593262 
	C821.155396,644.042236 817.161865,631.712524 808.608765,620.497375 
	C805.459473,616.367920 803.214172,611.549011 799.956726,606.027954 
	C805.017151,606.027954 808.808472,605.757385 812.521118,606.179443 
	C813.766052,606.320984 815.073914,608.060181 815.899963,609.357544 
	C819.191772,614.528137 822.304993,619.812439 825.938843,625.803894 
	C828.735046,621.192688 831.682983,617.365234 833.513855,613.062500 
	C836.073975,607.046204 840.114380,604.842651 846.351135,605.967834 
	C847.750183,606.220215 849.200012,606.190674 851.540527,606.355225 
	C849.472900,609.943970 847.772461,612.904114 846.062927,615.859070 
	C845.146179,617.443665 844.359009,619.128601 843.265320,620.581604 
	C835.177917,631.326843 830.747192,643.092224 832.870361,656.764648 
	C832.970032,657.406555 832.846436,658.095520 832.746643,658.750366 
	C832.700928,659.050598 832.460693,659.321228 831.825928,660.507385 
	C827.940002,660.054382 823.655640,659.554932 819.297119,658.593262 
z"/>
<path fill="#FC5E40" opacity="1.000000" stroke="none" 
	d="
M625.867126,743.027588 
	C625.867126,744.674561 625.867249,745.839539 625.867188,747.004456 
	C625.867065,755.414246 625.560181,755.648438 616.299377,754.013916 
	C616.299377,741.007263 616.299377,727.939819 616.299377,714.852356 
	C622.993713,712.767944 624.466858,713.267822 628.040344,718.782898 
	C631.701233,724.432922 635.386841,730.066895 639.876282,736.958496 
	C639.876282,728.585693 639.876282,721.710815 639.876282,714.414429 
	C643.175476,714.414429 646.063477,714.414429 649.867188,714.414429 
	C649.867188,717.041321 649.867188,719.782410 649.867188,722.523499 
	C649.867188,731.343689 649.971985,740.166138 649.782593,748.982239 
	C649.742615,750.841492 648.822205,754.144409 647.967041,754.259827 
	C644.939270,754.668518 641.395081,755.944580 639.042847,752.117493 
	C635.146362,745.778015 630.963074,739.614807 625.867126,733.494019 
	C625.867126,736.511230 625.867126,739.528381 625.867126,743.027588 
z"/>
<path fill="#FC5D3F" opacity="1.000000" stroke="none" 
	d="
M164.680939,639.983032 
	C164.680710,642.762207 164.680710,645.041077 164.680710,647.799683 
	C171.835297,647.799683 178.270767,647.799683 184.927582,647.799683 
	C184.927582,652.064331 184.927582,655.843506 184.927582,659.948608 
	C173.673416,659.948608 162.596542,659.948608 151.254227,659.948608 
	C151.254227,642.079346 151.254227,624.345886 151.254227,606.301758 
	C155.562271,606.301758 159.653244,606.301758 164.681168,606.301758 
	C164.681168,617.342651 164.681168,628.412659 164.680939,639.983032 
z"/>
<path fill="#FC5F41" opacity="1.000000" stroke="none" 
	d="
M392.384918,753.170654 
	C385.454132,756.419678 382.185211,755.162476 379.099457,748.907288 
	C377.462463,745.588867 377.324249,739.968811 370.376160,742.542847 
	C370.376160,746.192078 370.376160,750.083984 370.376160,753.615601 
	C369.522888,754.127808 369.257690,754.416748 368.970490,754.440552 
	C360.129669,755.172913 360.129242,755.168945 360.129211,746.519287 
	C360.129150,735.920776 360.129211,725.322266 360.129211,713.729004 
	C367.869293,714.069397 375.124542,713.968140 382.261017,714.839539 
	C387.660126,715.498840 390.877563,719.360352 392.231995,724.708252 
	C393.875244,731.196289 391.561493,736.058899 386.001556,739.890869 
	C388.137451,744.253296 390.231842,748.531006 392.384918,753.170654 
M376.227356,732.981873 
	C379.682556,732.699402 383.166870,732.213745 382.919281,727.601807 
	C382.699860,723.514648 378.173981,722.123718 370.545105,723.582153 
	C370.545105,726.585022 370.545105,729.594666 370.545105,733.009033 
	C372.419464,733.009033 373.885437,733.009033 376.227356,732.981873 
z"/>
<path fill="#FC5E40" opacity="1.000000" stroke="none" 
	d="
M321.535034,715.341797 
	C333.774384,710.072754 345.840240,714.103455 350.683105,724.772217 
	C355.406342,735.177368 351.072571,747.493896 340.962555,752.397888 
	C331.120026,757.172058 319.035431,753.568420 313.577637,744.231506 
	C307.844452,734.423523 311.062805,722.323608 321.535034,715.341797 
M338.738190,742.300110 
	C339.685699,740.751099 340.921600,739.306763 341.528595,737.634155 
	C343.665283,731.746460 340.878967,725.183289 335.499298,722.961365 
	C330.603241,720.939209 324.886047,723.199890 322.441895,728.124512 
	C320.044006,732.955994 321.072205,738.791443 324.946320,742.337524 
	C328.730591,745.801392 332.867798,745.951355 338.738190,742.300110 
z"/>
<path fill="#FC6346" opacity="1.000000" stroke="none" 
	d="
M590.264771,728.781982 
	C592.944153,729.194458 595.306702,729.571472 597.589783,729.294250 
	C602.052917,728.752380 602.957275,730.872559 602.732544,734.785828 
	C602.576477,737.503723 601.789124,738.799500 598.944641,738.673950 
	C596.135803,738.549988 593.317261,738.646912 590.084595,738.646912 
	C590.084595,740.850647 590.084595,742.708008 590.084595,745.117493 
	C594.134033,745.117493 598.094543,745.117371 602.055054,745.117554 
	C610.360413,745.117920 610.360413,745.117981 609.169250,753.893799 
	C599.518494,753.893799 589.799744,753.893799 579.713379,753.893799 
	C579.713379,740.686462 579.713379,727.487366 579.713379,714.029175 
	C589.714233,714.029175 599.441528,714.029175 609.381165,714.029175 
	C609.381165,716.958984 609.381165,719.555237 609.381165,722.700195 
	C602.896667,722.700195 596.659973,722.700195 589.911987,722.700195 
	C589.911987,724.976562 589.911987,726.713684 590.264771,728.781982 
z"/>
<path fill="#FC5E40" opacity="1.000000" stroke="none" 
	d="
M706.932861,754.866455 
	C703.262512,754.201416 699.870667,753.950134 696.824768,752.790283 
	C688.875854,749.763611 688.303040,747.814575 692.426636,739.462341 
	C693.757385,740.424133 694.925598,741.564941 696.322083,742.216370 
	C699.285156,743.598450 702.281738,745.180115 705.435059,745.772278 
	C707.097595,746.084534 709.118652,744.487671 710.977844,743.752808 
	C709.647400,742.148010 708.607910,740.044495 706.916809,739.058105 
	C704.527527,737.664429 701.609863,737.211670 699.001953,736.150391 
	C694.228638,734.208008 691.632629,730.817993 691.785706,725.397339 
	C691.935974,720.076355 694.501587,716.608337 699.258423,714.679565 
	C707.247681,711.439941 714.503052,713.677124 721.931580,717.879272 
	C721.124756,720.656189 720.359436,723.290039 719.443237,726.443237 
	C716.874268,725.148438 714.803894,723.784119 712.529907,723.051697 
	C710.381714,722.359619 707.990662,721.982727 705.764160,722.166504 
	C704.731750,722.251709 703.342041,723.873291 703.052551,725.032593 
	C702.860107,725.803650 704.115356,727.442688 705.093811,727.900818 
	C707.635864,729.091187 710.409302,729.774780 713.042664,730.785217 
	C719.796997,733.376831 722.509644,737.264648 721.990356,743.450623 
	C721.523132,749.016846 717.787720,752.858398 711.306641,754.340820 
	C710.021301,754.634827 708.682922,754.697021 706.932861,754.866455 
z"/>
<path fill="#FC5E40" opacity="1.000000" stroke="none" 
	d="
M451.016602,746.991821 
	C454.925842,736.883484 458.939758,727.228943 462.417084,717.384888 
	C463.744598,713.626770 466.208069,714.047546 469.020569,713.944641 
	C471.849518,713.841187 473.898682,714.063416 475.097931,717.387451 
	C479.471558,729.510254 484.196747,741.506165 488.793915,753.561584 
	C481.025787,756.151062 479.037323,755.325500 475.370636,748.012756 
	C472.381042,748.012756 469.221863,748.210510 466.098785,747.959229 
	C462.724304,747.687683 460.924255,748.645935 459.448517,752.060425 
	C457.273193,757.093262 452.707886,753.835510 448.326630,754.520447 
	C449.381683,751.597351 450.144562,749.483704 451.016602,746.991821 
M468.518341,727.339539 
	C466.982727,731.393250 465.447113,735.446960 463.804840,739.782227 
	C467.234833,739.782227 469.959747,739.782227 473.141602,739.782227 
	C471.678162,735.588440 470.335541,731.740906 468.518341,727.339539 
z"/>
<path fill="#FC5D3F" opacity="1.000000" stroke="none" 
	d="
M437.241455,714.353149 
	C445.739227,716.832947 449.988312,722.041565 448.900970,729.672241 
	C447.068695,742.530579 436.349426,741.163818 426.863556,742.230530 
	C426.863556,743.826599 426.870941,745.279602 426.862335,746.732483 
	C426.810516,755.473816 426.445740,755.753662 417.107788,753.975586 
	C417.107788,740.940308 417.107788,727.848267 417.107788,714.246643 
	C423.662659,714.246643 430.245514,714.246643 437.241455,714.353149 
M437.257874,731.900696 
	C437.722046,729.836731 439.247040,727.128906 438.456543,725.826355 
	C435.814667,721.473206 431.278259,723.197510 427.259216,723.128662 
	C427.259216,726.576965 427.259216,729.605896 427.259216,732.969788 
	C429.305054,732.969788 430.950897,733.064148 432.580078,732.939880 
	C433.888458,732.840088 435.176605,732.475403 437.257874,731.900696 
z"/>
<path fill="#FC5C3D" opacity="1.000000" stroke="none" 
	d="
M280.168671,753.410889 
	C280.036743,740.219421 280.036743,727.458618 280.036743,714.348572 
	C289.428497,714.348572 298.458679,714.348572 307.828125,714.348572 
	C307.828125,717.101074 307.828125,719.800049 307.828125,722.998291 
	C301.888733,722.998291 296.152924,722.998291 290.222534,722.998291 
	C290.222534,725.743103 290.222534,727.993774 290.222534,730.745361 
	C293.961121,730.745361 297.540833,730.745361 302.740417,730.745361 
	C301.584442,734.346863 301.483765,738.374084 299.629211,739.492188 
	C297.345795,740.868835 293.600647,739.820984 289.980103,739.820984 
	C289.980103,744.882202 289.980103,749.452637 289.980103,754.819580 
	C286.365692,754.454407 283.333130,754.148010 280.168671,753.410889 
z"/>
<path fill="#FC5E40" opacity="1.000000" stroke="none" 
	d="
M523.957397,714.028320 
	C524.523621,714.734131 525.066223,715.564758 524.847717,716.058472 
	C524.179504,717.568237 523.218933,718.948669 522.371582,720.379089 
	C519.235718,725.672852 515.119934,730.644775 513.245972,736.352783 
	C511.455292,741.807129 511.997650,748.027344 511.485260,754.267273 
	C508.486969,754.267273 505.423492,754.267273 501.220551,754.267273 
	C505.730774,738.105042 494.555328,727.369324 488.023529,714.955627 
	C495.749725,712.682739 497.319794,713.258728 501.140381,719.492737 
	C502.704590,722.044983 504.282928,724.588745 505.869080,727.127441 
	C506.041901,727.403992 506.309357,727.621460 506.986908,728.363647 
	C508.612213,725.742554 510.524353,723.416138 511.608795,720.752686 
	C513.880432,715.173218 517.636719,712.783997 523.957397,714.028320 
z"/>
<path fill="#FC5E40" opacity="1.000000" stroke="none" 
	d="
M668.452698,754.609131 
	C667.260071,753.080933 665.860596,751.577026 665.823181,750.039978 
	C665.609253,741.250183 665.719238,732.452454 665.719238,723.152588 
	C662.501587,723.152588 659.593628,723.152588 656.338806,723.152588 
	C656.338806,719.955872 656.338806,717.264160 656.338806,714.314514 
	C657.352295,714.188477 658.143188,714.006348 658.934448,714.004517 
	C667.561096,713.984070 676.187805,713.991699 685.215820,713.991699 
	C685.215820,717.018982 685.215820,719.732788 685.215820,722.950806 
	C682.211975,722.950806 679.312256,722.950806 675.992432,722.950806 
	C675.992432,733.504639 675.992432,743.575195 675.992432,754.201111 
	C673.360779,754.355225 671.117859,754.486633 668.452698,754.609131 
z"/>
<path fill="#FFF5F3" opacity="1.000000" stroke="none" 
	d="
M250.874786,628.000549 
	C251.451767,626.290588 251.931473,624.944336 252.825851,622.434265 
	C255.088699,629.055115 256.983704,634.599731 259.022400,640.564697 
	C254.872345,640.564697 251.172302,640.564697 246.635406,640.564697 
	C248.075851,636.321899 249.426682,632.343079 250.874786,628.000549 
z"/>
<path fill="#FFF5F3" opacity="1.000000" stroke="none" 
	d="
M746.473145,631.490112 
	C747.501404,634.650696 748.366577,637.451050 749.349792,640.633667 
	C745.136963,640.633667 741.529480,640.633667 737.107666,640.633667 
	C739.075256,634.762268 740.968140,629.114014 743.299011,622.158813 
	C744.592102,626.011475 745.450989,628.570618 746.473145,631.490112 
z"/>
<path fill="#FFF5F3" opacity="1.000000" stroke="none" 
	d="
M511.077759,640.654602 
	C512.377930,634.833069 514.041748,629.159546 515.705505,623.486084 
	C516.079163,623.477844 516.452881,623.469604 516.826538,623.461365 
	C518.696533,629.034424 520.566467,634.607483 522.645203,640.802673 
	C518.342102,640.802673 514.891724,640.802673 511.077759,640.654602 
z"/>
<path fill="#FFFBFA" opacity="1.000000" stroke="none" 
	d="
M663.045044,618.422974 
	C667.121582,619.693237 669.051758,622.206604 668.418274,626.006714 
	C667.791443,629.767090 664.763245,630.883911 661.379944,631.016724 
	C658.296509,631.137878 655.204651,631.042419 651.900513,631.042419 
	C651.900513,626.552063 651.900513,622.622925 651.900513,618.283447 
	C655.512573,618.283447 659.082031,618.283447 663.045044,618.422974 
z"/>
<path fill="#FFF5F3" opacity="1.000000" stroke="none" 
	d="
M375.789368,732.995483 
	C373.885437,733.009033 372.419464,733.009033 370.545105,733.009033 
	C370.545105,729.594666 370.545105,726.585022 370.545105,723.582153 
	C378.173981,722.123718 382.699860,723.514648 382.919281,727.601807 
	C383.166870,732.213745 379.682556,732.699402 375.789368,732.995483 
z"/>
<path fill="#FFFBFA" opacity="1.000000" stroke="none" 
	d="
M338.447266,742.558228 
	C332.867798,745.951355 328.730591,745.801392 324.946320,742.337524 
	C321.072205,738.791443 320.044006,732.955994 322.441895,728.124512 
	C324.886047,723.199890 330.603241,720.939209 335.499298,722.961365 
	C340.878967,725.183289 343.665283,731.746460 341.528595,737.634155 
	C340.921600,739.306763 339.685699,740.751099 338.447266,742.558228 
z"/>
<path fill="#FFF5F3" opacity="1.000000" stroke="none" 
	d="
M468.755615,727.616455 
	C470.335541,731.740906 471.678162,735.588440 473.141602,739.782227 
	C469.959747,739.782227 467.234833,739.782227 463.804840,739.782227 
	C465.447113,735.446960 466.982727,731.393250 468.755615,727.616455 
z"/>
<path fill="#FFFBFA" opacity="1.000000" stroke="none" 
	d="
M436.865784,732.064453 
	C435.176605,732.475403 433.888458,732.840088 432.580078,732.939880 
	C430.950897,733.064148 429.305054,732.969788 427.259216,732.969788 
	C427.259216,729.605896 427.259216,726.576965 427.259216,723.128662 
	C431.278259,723.197510 435.814667,721.473206 438.456543,725.826355 
	C439.247040,727.128906 437.722046,729.836731 436.865784,732.064453 
z"/>
</svg>